# xmcd
#
# Track frame offsets:
#	150
#	10464
#	24445
#	36201
#	45841
#	55465
#	69446
#	81876
#	94478
#	103593
#	114259
#	124259
#	133084
#	144659
#	154440
#	162262
#	172246
#	181298
#	193304
#	203688
#	214989
#	224519
#	233399
#	244371
#	254559
#	265288
#	276926
#	289254
#	301950
#	313619
#	322381
#	331942
#
# Disc length: 4595 seconds
# Revision: 0
# Processed by: cddbd v1.5.2PL0 Copyright (c) Steve Scherf et al.
# Submitted via: dBpowerAMP V12.0
#
DISCID=f511f120
DTITLE=Wanda Jackson - Right Or Wrong, Disc 2
DYEAR=1958
DGENRE=Pop\Rock*
TTITLE0=Makin' Believe
TTITLE1=Just Call Me Lonesome
TTITLE2=Happy, Happy Birthday
TTITLE3=Let Me Go, Lover
TTITLE4={Let's Have A} Party
TTITLE5=Day Dreaming
TTITLE6=Heartbreak Ahead
TTITLE7=Here We Are Again
TTITLE8=I Wanna Waltz
TTITLE9=I Can't Make My Dreams Understand
TTITLE10=Money Honey
TTITLE11=Long Tall Sally
TTITLE12=Sinful Heart
TTITLE13=Mean Mean Man
TTITLE14=Rock Your Baby
TTITLE15=A Date With Jerry
TTITLE16={Every Time They Play} Our Song
TTITLE17=You've Turned To A Stranger
TTITLE18=Reaching
TTITLE19=I'd Rather Have You
TTITLE20=Savin' My Love
TTITLE21=You're The One For Me
TTITLE22=In The Middle Of A Heartache
TTITLE23=Please Call Today
TTITLE24=My Destiny
TTITLE25=The Wrong Kind Of Girl
TTITLE26=Kansas City
TTITLE27=Fallin'
TTITLE28=Sparkling Brown Eyes
TTITLE29=Hard Headed Woman
TTITLE30=Baby, Baby, Bye Bye
TTITLE31=It Doesn't Matter Anymore
EXTD=
EXTT0=
EXTT1=
EXTT2=
EXTT3=
EXTT4=
EXTT5=
EXTT6=
EXTT7=
EXTT8=
EXTT9=
EXTT10=
EXTT11=
EXTT12=
EXTT13=
EXTT14=
EXTT15=
EXTT16=
EXTT17=
EXTT18=
EXTT19=
EXTT20=
EXTT21=
EXTT22=
EXTT23=
EXTT24=
EXTT25=
EXTT26=
EXTT27=
EXTT28=
EXTT29=
EXTT30=
EXTT31=
PLAYORDER=
